<svg width="15" height="15" viewBox="0 0 15 15" fill="none" xmlns="http://www.w3.org/2000/svg">
<path d="M7.49957 2.33102C8.75534 2.33102 9.90492 2.79262 10.7927 3.55782L10.9043 3.65541L11.0278 3.7663L11.16 3.88758L11.3745 4.08901L11.6083 4.31383L11.8614 4.56205L12.041 4.74054L12.4259 5.1287L12.7373 5.44712L13.1825 5.90809L13.6622 6.41065L13.915 6.67753C14.3387 7.12605 14.3541 7.80699 13.9609 8.27237L13.9155 8.32317L13.421 8.84468L13.0697 9.21139L12.6316 9.66377L12.3255 9.97562L11.9474 10.3549L11.7713 10.5288L11.5233 10.7701L11.2945 10.9879L11.0852 11.1822L10.9563 11.2987L10.8361 11.4047C10.8167 11.4215 10.7978 11.4378 10.7792 11.4538C9.89327 12.212 8.74898 12.669 7.49957 12.669C6.24269 12.669 5.09219 12.2065 4.20411 11.4401L4.09268 11.3426L3.96928 11.2317L3.76804 11.046L3.54743 10.837L3.30745 10.6045L3.04809 10.3487L2.67215 9.97129L2.26177 9.55234L1.81696 9.09186L1.2125 8.45785C1.17041 8.41342 1.12796 8.36855 1.08516 8.32326C0.66102 7.87447 0.645883 7.19296 1.03974 6.72756L1.08518 6.67676L1.69631 6.03408L1.97737 5.7415L2.3749 5.33164L2.62388 5.07775L2.86001 4.83934L3.14475 4.55555L3.43117 4.27515L3.60809 4.10513L3.85241 3.87547L4.00127 3.73929L4.1389 3.61663C4.1609 3.59732 4.18243 3.57857 4.2035 3.56038C5.09167 2.79365 6.24241 2.33102 7.49957 2.33102ZM7.49957 3.2432C6.50767 3.2432 5.57041 3.59982 4.8257 4.2427L4.66125 4.3878L4.53812 4.49983L4.33674 4.68775L4.03722 4.9753L3.78941 5.21863L3.52184 5.4856L3.23457 5.77615L2.92768 6.09022L2.60125 6.42773L2.13574 6.91412L1.77525 7.29421C1.66529 7.41056 1.66529 7.58948 1.77525 7.70583L2.25028 8.20612L2.81609 8.79486L3.1296 9.11692L3.51718 9.50981L3.78492 9.77701L3.95246 9.94203L4.18728 10.1699L4.3328 10.3086L4.53448 10.4968L4.71619 10.6613L4.8262 10.7577C5.57083 11.4003 6.5079 11.7568 7.49957 11.7568C8.48539 11.7568 9.41726 11.4046 10.16 10.7689L10.2669 10.6759L10.3864 10.5692L10.5148 10.4517L10.652 10.3236L10.7982 10.1848L10.9532 10.0354L11.2023 9.79127L11.5652 9.42874L11.8604 9.12912L12.1751 8.80581L12.6251 8.33798L12.8631 8.08837L13.2249 7.70628C13.3347 7.58992 13.3347 7.41115 13.2248 7.29487L12.6356 6.67494L12.0792 6.09761L11.6731 5.68276L11.3916 5.39914L11.1297 5.13918L10.8877 4.90294L10.7374 4.75865L10.596 4.62495L10.4005 4.44428L10.2813 4.33712L10.171 4.24061C9.42667 3.59902 8.49038 3.2432 7.49957 3.2432ZM7.5 4.68793C9.01134 4.68793 10.2365 5.94712 10.2365 7.50043C10.2365 9.05373 9.01134 10.3129 7.5 10.3129C5.98867 10.3129 4.76349 9.05373 4.76349 7.50043C4.76349 5.94712 5.98867 4.68793 7.5 4.68793ZM7.53019 5.625V6.75001L7.52832 6.80626C7.50016 7.18063 7.20049 7.47366 6.83101 7.49833L6.78022 7.50001H5.65525L5.65712 7.58139C5.70068 8.58436 6.52651 9.37506 7.53041 9.375C8.56592 9.37493 9.40531 8.53543 9.40525 7.4999C9.40518 6.46436 8.5657 5.62494 7.53019 5.625Z" fill="#333333"/>
</svg>
