<svg width="15" height="15" viewBox="0 0 15 15" fill="none" xmlns="http://www.w3.org/2000/svg">
<path d="M13.7498 4.98015L13.75 5.98118C13.75 6.0169 13.7347 6.05092 13.708 6.07465C13.093 6.62111 12.6085 7.00628 12.2546 7.23016L13.4591 8.63012C13.5041 8.68245 13.4982 8.76137 13.4459 8.8064C13.4451 8.80707 13.4443 8.80773 13.4435 8.80838L12.9189 9.23771C12.8664 9.28067 12.7892 9.27392 12.745 9.22249L11.4287 7.69231C10.7628 8.01917 10.0484 8.26555 9.29862 8.41833L9.94225 10.143C9.96639 10.2077 9.93352 10.2797 9.86884 10.3038C9.86821 10.3041 9.86758 10.3043 9.86695 10.3045L9.22164 10.5336C9.15732 10.5564 9.08658 10.5234 9.06272 10.4595L8.35332 8.55875C8.07255 8.58525 7.7879 8.59881 7.5 8.59881C7.13986 8.59881 6.7848 8.57759 6.43606 8.53636L5.71841 10.4595C5.69455 10.5234 5.6238 10.5564 5.55948 10.5336L4.91418 10.3045C4.84912 10.2814 4.8151 10.21 4.8382 10.1449C4.83842 10.1443 4.83865 10.1436 4.83888 10.143L5.4989 8.3746C4.82284 8.22034 4.17696 7.98962 3.57134 7.69231L2.255 9.22249C2.21076 9.27392 2.13357 9.28067 2.08108 9.23771L1.55647 8.80838C1.50304 8.76466 1.49518 8.68591 1.5389 8.63248C1.53955 8.63169 1.54021 8.6309 1.54088 8.63012L2.74543 7.23016C2.39147 7.00627 1.90697 6.62109 1.29194 6.07461C1.26527 6.05087 1.25 6.01687 1.25 5.98117V4.98843C1.25 4.91939 1.30596 4.86343 1.375 4.86343C1.41257 4.86343 1.44815 4.88033 1.47189 4.90945L1.5069 4.95239L1.5681 5.02352C3.00088 6.65248 5.12687 7.68449 7.5 7.68449C9.8778 7.68449 12.0075 6.64842 13.4403 5.0139L13.5341 4.90371C13.5763 4.85161 13.6527 4.8436 13.7048 4.88583C13.7333 4.90888 13.7498 4.94354 13.7498 4.98015Z" fill="#333333"/>
</svg>
