<svg width="28" height="28" viewBox="0 0 28 28" fill="none" xmlns="http://www.w3.org/2000/svg">
<path d="M6.14672 12.2501C6.14672 11.2188 6.34985 10.1976 6.74451 9.24484C7.13916 8.29205 7.71762 7.42633 8.44685 6.6971C9.17608 5.96787 10.0418 5.38941 10.9946 4.99476C11.9474 4.6001 12.9686 4.39697 13.9998 4.39697C15.0311 4.39697 16.0523 4.6001 17.0051 4.99476C17.9579 5.38941 18.8236 5.96787 19.5528 6.6971C20.2821 7.42633 20.8605 8.29205 21.2552 9.24484C21.6498 10.1976 21.853 11.2188 21.853 12.2501V12.2501C21.853 16.1657 22.6733 18.4407 23.3952 19.6876C23.4718 19.8204 23.5123 19.971 23.5124 20.1243C23.5125 20.2777 23.4724 20.4283 23.3959 20.5613C23.3195 20.6942 23.2095 20.8047 23.0769 20.8817C22.9443 20.9587 22.7938 20.9996 22.6405 21.0001H5.35922C5.20589 20.9996 5.05539 20.9587 4.9228 20.8817C4.79022 20.8047 4.68019 20.6942 4.60376 20.5613C4.52733 20.4283 4.48717 20.2777 4.48731 20.1243C4.48744 19.971 4.52787 19.8204 4.60454 19.6876C5.32641 18.4407 6.14672 16.1657 6.14672 12.2501Z" stroke="#333333" stroke-width="2" stroke-linecap="round" stroke-linejoin="round"/>
<path d="M10.5 21V21.875C10.5 22.8033 10.8687 23.6935 11.5251 24.3499C12.1815 25.0063 13.0717 25.375 14 25.375C14.9283 25.375 15.8185 25.0063 16.4749 24.3499C17.1313 23.6935 17.5 22.8033 17.5 21.875V21" stroke="#333333" stroke-width="2" stroke-linecap="round" stroke-linejoin="round"/>
<path d="M20.0596 2.625C21.8411 3.74961 23.279 5.34261 24.2158 7.22969" stroke="#333333" stroke-width="2" stroke-linecap="round" stroke-linejoin="round"/>
<path d="M3.78418 7.22969C4.721 5.34261 6.15887 3.74961 7.94043 2.625" stroke="#333333" stroke-width="2" stroke-linecap="round" stroke-linejoin="round"/>
</svg>
