<svg width="28" height="28" viewBox="0 0 28 28" fill="none" xmlns="http://www.w3.org/2000/svg">
<path d="M14 19.25C16.8995 19.25 19.25 16.8995 19.25 14C19.25 11.1005 16.8995 8.75 14 8.75C11.1005 8.75 8.75 11.1005 8.75 14C8.75 16.8995 11.1005 19.25 14 19.25Z" stroke="#333333" stroke-width="2" stroke-linecap="round" stroke-linejoin="round"/>
<path d="M21.5904 8.82676C21.8537 9.20374 22.0842 9.6026 22.2794 10.0189L25.1122 11.5939C25.4659 13.1782 25.4697 14.8206 25.1232 16.4064L22.2794 17.9814C22.0842 18.3978 21.8537 18.7966 21.5904 19.1736L21.645 22.4221C20.4445 23.5161 19.0236 24.3403 17.4779 24.8393L14.6888 23.1658C14.23 23.1986 13.7695 23.1986 13.3107 23.1658L10.5325 24.8283C8.98194 24.3384 7.55633 23.5174 6.35441 22.4221L6.4091 19.1846C6.14799 18.8024 5.91758 18.4001 5.72004 17.9814L2.88723 16.4064C2.53351 14.8222 2.52977 13.1798 2.87629 11.5939L5.72004 10.0189C5.91525 9.6026 6.14579 9.20374 6.4091 8.82676L6.35441 5.57832C7.55497 4.48431 8.97589 3.6601 10.5216 3.16113L13.3107 4.83457C13.7695 4.80175 14.23 4.80175 14.6888 4.83457L17.4669 3.17207C19.0175 3.66196 20.4431 4.48299 21.645 5.57832L21.5904 8.82676Z" stroke="#333333" stroke-width="2" stroke-linecap="round" stroke-linejoin="round"/>
</svg>
