<svg width="18" height="18" viewBox="0 0 18 18" fill="none" xmlns="http://www.w3.org/2000/svg">
<g clip-path="url(#clip0_14319_763)">
<path d="M9 0.75C13.5563 0.75 17.25 4.44365 17.25 9C17.25 13.5563 13.5563 17.25 9 17.25C4.44365 17.25 0.75 13.5563 0.75 9C0.75 4.44365 4.44365 0.75 9 0.75ZM9 1.875C5.06497 1.875 1.875 5.06497 1.875 9C1.875 12.935 5.06497 16.125 9 16.125C12.935 16.125 16.125 12.935 16.125 9C16.125 5.06497 12.935 1.875 9 1.875ZM9.4125 11.625C9.49534 11.625 9.5625 11.6922 9.5625 11.775V12.6C9.5625 12.6828 9.49534 12.75 9.4125 12.75H8.5875C8.50466 12.75 8.4375 12.6828 8.4375 12.6V11.775C8.4375 11.6922 8.50466 11.625 8.5875 11.625H9.4125ZM9.4125 5.25C9.49534 5.25 9.5625 5.31716 9.5625 5.4V10.35C9.5625 10.4328 9.49534 10.5 9.4125 10.5H8.5875C8.50466 10.5 8.4375 10.4328 8.4375 10.35V5.4C8.4375 5.31716 8.50466 5.25 8.5875 5.25H9.4125Z" fill="#FF3B2E"/>
</g>
<defs>
<clipPath id="clip0_14319_763">
<rect width="18" height="18" fill="white"/>
</clipPath>
</defs>
</svg>
